<svg xmlns="http://www.w3.org/2000/svg" xmlns:xlink="http://www.w3.org/1999/xlink" version="1.1" width="1000" height="1000" viewBox="0 0 1000 1000" xml:space="preserve">
<desc>Created with Fabric.js 3.5.0</desc>
<defs>
</defs>
<rect x="0" y="0" width="100%" height="100%" fill="transparent"/>
<g transform="matrix(8.2979 0 0 8.2979 500.0013 500.0015)" id="211945">
<path style="stroke: none; stroke-width: 1; stroke-dasharray: none; stroke-linecap: butt; stroke-dashoffset: 0; stroke-linejoin: miter; stroke-miterlimit: 4; is-custom-font: none; font-file-url: none; fill: rgb(127,70,240); fill-rule: nonzero; opacity: 1;" vector-effect="non-scaling-stroke" transform=" translate(-45.0008, -54.7786)" d="M 17.911 10.141 c 0.137 0 0.272 -0.01 0.404 -0.027 l 3.974 16.154 l 0.13 0.524 l 0.194 0.504 S 25.44 34.564 45 34.564 s 22.385 -7.268 22.385 -7.268 a 10.18 10.18 0 0 0 0.305 -0.963 l 4.006 -16.266 a 2.98 2.98 0 0 0 3.643 -2.899 a 2.98 2.98 0 0 0 -2.975 -2.976 a 2.98 2.98 0 0 0 -2.978 2.976 a 2.97 2.97 0 0 0 0.565 1.743 l -6.939 5.457 a 0.35 0.35 0 0 1 -0.587 -0.154 l -3.24 -8.776 c -0.097 -0.261 -0.337 -0.309 -0.536 -0.103 l -7.29 7.543 c -0.199 0.204 -0.475 0.172 -0.614 -0.073 l -4.167 -7.311 a 2.97 2.97 0 0 0 1.393 -2.52 C 47.971 1.331 46.64 0 44.998 0 s -2.976 1.332 -2.976 2.975 c 0 1.062 0.556 1.992 1.392 2.52 l -4.165 7.311 c -0.139 0.245 -0.415 0.277 -0.613 0.073 l -7.29 -7.543 c -0.198 -0.205 -0.438 -0.157 -0.536 0.103 l -3.241 8.776 c -0.096 0.262 -0.359 0.332 -0.586 0.154 l -6.767 -5.321 a 2.96 2.96 0 0 0 0.668 -1.878 a 2.98 2.98 0 0 0 -2.975 -2.976 a 2.98 2.98 0 0 0 -2.976 2.976 a 2.98 2.98 0 0 0 2.979 2.971 z m 72.002 62.471 l -6.934 -11.515 c -0.145 -0.24 -0.127 -0.625 0.043 -0.85 l 4.364 -5.916 c 0.17 -0.228 0.188 -0.61 0.043 -0.85 L 74.735 32.318 a 1.91 1.91 0 0 0 -0.743 -0.656 l -4.769 -2.147 c -0.265 -0.121 -0.632 -0.043 -0.816 0.173 c 0 0 -1.636 1.895 -3.667 3.064 c -4.423 2.547 -11.066 3.902 -19.741 3.902 c -8.656 0 -15.316 -1.385 -19.794 -3.99 c -1.846 -1.074 -3.588 -2.989 -3.588 -2.989 a 0.77 0.77 0 0 0 -0.828 -0.166 l -4.782 2.154 a 1.94 1.94 0 0 0 -0.744 0.656 L 2.572 53.482 a 0.83 0.83 0 0 0 0.042 0.85 l 4.365 5.916 a 0.83 0.83 0 0 1 0.042 0.85 L 0.089 72.613 a 0.74 0.74 0 0 0 0.08 0.819 l 22.157 24.865 c 0.188 0.214 0.562 0.293 0.829 0.182 l 4.7 -1.982 c 0.267 -0.113 0.486 0.022 0.486 0.3 v 4.629 a 0.88 0.88 0 0 0 0.477 0.726 l 15.705 7.315 a 1.31 1.31 0 0 0 0.955 0 l 15.705 -7.315 a 0.88 0.88 0 0 0 0.477 -0.726 v -4.629 c 0 -0.279 0.22 -0.413 0.487 -0.3 l 4.699 1.982 a 0.79 0.79 0 0 0 0.831 -0.182 l 22.155 -24.865 c 0.188 -0.21 0.224 -0.581 0.081 -0.821 z M 32.118 89.131 l -4.801 -5.101 a 0.53 0.53 0 0 1 0.122 -0.728 l 7.639 -7.233 c 0.231 -0.171 0.635 -0.209 0.897 -0.084 l 7.756 3.651 c 0.263 0.125 0.477 0.452 0.477 0.731 v 6.961 c 0 0.279 -0.237 0.539 -0.527 0.582 l -10.739 1.564 c -0.29 0.042 -0.661 -0.11 -0.826 -0.342 z m 22.293 6.005 c 0 0.277 -0.223 0.587 -0.497 0.685 l -8.417 3.023 c -0.274 0.096 -0.722 0.096 -0.997 0 l -8.418 -3.023 c -0.273 -0.098 -0.497 -0.408 -0.497 -0.685 v -3.772 c 0 -0.282 0.237 -0.54 0.527 -0.582 l 3.62 -0.529 c 0.698 1.497 2.429 3.492 5.267 3.492 s 4.568 -1.994 5.266 -3.492 l 3.621 0.529 c 0.287 0.041 0.524 0.3 0.524 0.582 v 3.772 z m 8.272 -11.108 l -4.801 5.101 a 0.94 0.94 0 0 1 -0.824 0.341 l -10.74 -1.564 c -0.289 -0.043 -0.527 -0.303 -0.527 -0.582 v -6.961 c 0 -0.279 0.214 -0.605 0.479 -0.726 l 7.766 -3.651 c 0.261 -0.123 0.663 -0.081 0.896 0.086 l 7.631 7.226 c 0.23 0.175 0.285 0.502 0.121 0.73 z m 9.829 -26.063 l -6.023 6.58 c -0.192 0.209 -0.219 0.57 -0.058 0.802 l 4.997 7.259 a 0.84 0.84 0 0 1 0.016 0.853 l -5.22 8.184 a 0.48 0.48 0 0 1 -0.696 0.125 l -9.702 -7.144 c -0.231 -0.171 -0.42 -0.536 -0.417 -0.812 l 0.078 -8.971 c 0.001 -0.277 0.22 -0.603 0.482 -0.726 l 9.774 -4.559 c 0.262 -0.121 0.364 -0.423 0.23 -0.668 l -2.131 -3.834 a 0.49 0.49 0 0 0 -0.694 -0.169 l -10.317 6.383 a 1.03 1.03 0 0 0 -0.443 0.781 v 10.264 c 0 0.277 -0.233 0.567 -0.513 0.641 l -6.362 1.692 c -0.282 0.076 -0.743 0.076 -1.025 0 l -6.361 -1.692 c -0.282 -0.075 -0.513 -0.365 -0.513 -0.641 v -10.26 c 0 -0.277 -0.201 -0.63 -0.445 -0.781 l -10.317 -6.383 a 0.49 0.49 0 0 0 -0.694 0.169 l -2.131 3.834 c -0.137 0.245 -0.033 0.548 0.23 0.668 l 9.773 4.559 c 0.263 0.123 0.48 0.449 0.482 0.726 l 0.078 8.971 a 1.14 1.14 0 0 1 -0.416 0.812 l -9.703 7.145 c -0.231 0.169 -0.544 0.113 -0.695 -0.125 l -5.222 -8.184 a 0.84 0.84 0 0 1 0.016 -0.853 l 4.998 -7.259 a 0.68 0.68 0 0 0 -0.058 -0.802 l -6.023 -6.58 a 0.72 0.72 0 0 1 -0.078 -0.816 l 5.001 -8.021 c 0.149 -0.239 0.474 -0.314 0.723 -0.166 l 14.355 8.477 c 0.249 0.146 0.452 0.038 0.452 -0.239 v -2.439 c 0 -0.278 -0.173 -0.661 -0.385 -0.853 l -11.137 -10.03 a 0.61 0.61 0 0 1 -0.098 -0.771 l 0.204 -0.3 c 0.159 -0.234 0.509 -0.333 0.778 -0.224 l 17.212 7.081 a 1.49 1.49 0 0 0 0.976 0 l 17.21 -7.083 a 0.67 0.67 0 0 1 0.776 0.224 l 0.205 0.3 a 0.61 0.61 0 0 1 -0.098 0.771 l -11.137 10.03 a 1.32 1.32 0 0 0 -0.385 0.853 v 2.439 c 0 0.278 0.204 0.385 0.452 0.239 l 14.355 -8.477 c 0.249 -0.148 0.575 -0.073 0.722 0.166 l 5.001 8.021 a 0.72 0.72 0 0 1 -0.079 0.815 z" stroke-linecap="round"/>
</g>
</svg>