<svg xmlns="http://www.w3.org/2000/svg" width="320" height="104.715" xmlns:v="https://vecta.io/nano"><path fill="#7f46f0" d="M61.391 1.601C44.315-5.771 34.165 14.045 43.484 25.902 45.289 13.637 53.572 7.851 61.391 1.601zM23.021 28.46c-4.403 2.417-6.232 7.41-11.511 8.952 2.026 9.609-5.885 18.066 2.558 10.231v-8.952c7.813-4.271 13.233-17.263 25.58-12.79-3.869-5.416-1.32-16.958-2.558-21.743-6.597 1.83-12.818 8.299-8.954 16.627-7.145-3.822-22.05 1.564-20.464 6.395 2.913-2.409 13.984-2.1 15.35 1.281zm-.851 19.183s3.648-5.835 9.274-8.845c1.045-.559-10.126 0-10.126 0l.852 8.845zm25.152-21.742c7.07-9.131 18.281-14.122 34.534-14.069-9.664-18.79-36.838 1.518-34.534 14.069zm42.209 19.186c-4.692-12.848-23.329-16.505-40.928-14.07 34.888 8.625-5.414 44.702 0 62.673 2.577 8.559 19.141 14.308 33.253 8.953-29.198-5.698 1.505-57.097-19.184-67.787 26.239 7.178-2.875 53.015 16.625 56.276-5.388-3.527-4.617-7.227-3.867-8.897 6.738-12.325 19.94-21.155 14.1-37.148zM49.881 27.18c23.803-4.298 43.071 6.148 46.045 26.859C114.079 18.775 66.667 6.052 49.881 27.18zm-1.278 7.674c10.358 12.769 3.216 33.405-17.909 29.416 1.441 3.675.26 9.974 2.56 12.79 2.063-8.164 8.42-12.045 20.464-10.233 5.291-8.601 6.532-29.673-5.116-31.974zM26.786 85.732c-.122.088-.307.251-.566.506-.766.582-1.728.968-3.007 1.034-.103-.018-.2-.038-.297-.063-.678-.555-4.782-4.017-5.023-6.953.189-.279.493-.569.99-.779a5.96 5.96 0 0 0 .141-.043c2.965-.29 3.856 1.493 6.555 1.463-.765-2.276 3.747-5.311 0-6.393-7.43 8.243-22.83-1.983-15.348-12.79C5.625 61.371 4.068 64.077 0 64.271c8.559 12.331 18 23.778 31.974 30.698-1.439-3.678-.257-9.975-2.557-12.79-.884 1.177-1.594 2.53-2.631 3.553z"/><path d="M133.171 37.076l4.974 30.369c.383 2.391-5.022 2.63-5.309.909l-.957-5.739h-5.596l-.957 5.739c-.239 1.435-5.691 1.483-5.309-.909l5.022-30.369c.239-1.435 7.939-1.291 8.13 0zm-2.2 20.134l-1.865-11.43-1.913 11.43h3.778zm22.908-8.848l1.865-11.191c.287-1.483 5.691-1.483 5.309.909l-4.974 30.369c-.239 1.483-7.891 1.483-8.13 0l-5.022-30.369c-.383-2.391 5.069-2.343 5.309-.909l1.865 11.191 1.913 11.382zm25.108-11.287l4.974 30.369c.383 2.391-5.022 2.63-5.309.909l-.957-5.739h-5.596l-.957 5.739c-.239 1.435-5.691 1.483-5.309-.909l5.022-30.369c.239-1.435 7.939-1.291 8.13 0zm-2.2 20.134l-1.865-11.43-1.913 11.43h3.778zm20.469-11.43l3.348-9.23c.43-1.148 5.835.048 5.117 2.009l-5.5 14.73 5.117 13.821c.717 2.009-4.639 3.156-5.069 2.009l-3.013-8.369-2.965 8.369c-.43 1.1-5.93.096-5.117-2.009l5.117-13.821-5.452-14.682c-.813-2.2 4.639-3.396 5.117-2.009zm29.317 19.082l1.578 1.578c2.391 2.391-3.109 4.543-3.826 3.826l-1.435-1.387c-.957.43-2.104.67-3.396.67h-1.243c-4.017 0-6.6-2.391-7.509-6.074-.191-.717-.239-20.134-.143-20.66.67-4.017 3.156-6.648 7.652-6.743h1.243c4.543.096 6.982 2.726 7.652 6.743.143.526.048 19.943-.143 20.66a6.68 6.68 0 0 1-.43 1.387zm-9.039-1.052a2.94 2.94 0 0 0 2.678 0c1.387-.67 1.626-2.343 1.674-3.491V45.35c0-1.148-.287-2.822-1.674-3.491a2.94 2.94 0 0 0-2.678 0c-1.387.67-1.674 2.343-1.674 3.491v14.969c.048 1.148.287 2.822 1.674 3.491zm35.63-26.686v20.565c0 15.782-18.652 15.878-18.652-.048V37.076c0-1.435 5.452-1.435 5.452 0v20.565c0 8.752 7.748 8.8 7.748.048V37.124c0-1.435 5.452-1.435 5.452 0zm12.148 26.973h6.839c1.435 0 1.435 5.452 0 5.452h-9.23c-3.061 0-3.061 0-3.061-2.583V38.654c0-2.583 0-2.583 2.917-2.63l9.326.048c1.435 0 1.435 5.452 0 5.452h-6.791v8.704h4.783c1.435 0 1.435 5.5 0 5.5h-4.783v8.369zm29.699-3.109c.096 1.626-.335 3.443-1.243 4.783-.43.622-.909 1.243-1.53 1.77-.383.287-.765.622-1.196.861s-.909.43-1.339.622c-1.435.622-3.156.67-4.639.287-.765-.191-1.483-.478-2.152-.909-.622-.383-1.291-.861-1.77-1.435-.526-.574-1.004-1.196-1.339-1.913-.191-.43-.43-.909-.574-1.387-.096-.478-.239-1.722-.239-2.2 0-1.435 5.356-1.435 5.356 0 0 1.196 1.865 4.4 4.735 1.53 1.196-1.722.096-3.683-.957-5.117-1.626-2.009-3.73-3.539-5.452-5.452-1.004-1.1-2.009-2.343-2.63-3.73-.335-.765-.622-1.53-.813-2.391-.717-3.969.526-11.048 9.182-10.235 4.352.43 6.265 4.161 6.265 6.696 0 1.435-5.452 1.435-5.452 0 0-1.913-5.404-2.152-4.735 2.056.096.43.191.861.383 1.291.287.622.622 1.148 1.004 1.674.478.622.957 1.148 1.53 1.674 2.104 2.056 4.496 3.922 6.026 6.552a11.47 11.47 0 0 1 1.578 4.974zm4.878-24.917h19.034c1.435 0 1.435 5.356 0 5.356l-6.791.096v26.973c0 1.435-5.452 1.435-5.452 0V41.524l-6.791-.096c-1.435 0-1.435-5.356 0-5.356z" fill="#fff"/></svg>